<svg
   width="167.95306"
   height="167.75314"
   viewBox="0 0 167.95306 167.75314"
   version="1.1"
   id="svg1"
   xml:space="preserve"
   xmlns="http://www.w3.org/2000/svg"
   xmlns:svg="http://www.w3.org/2000/svg"><defs
     id="defs1" /><g
     id="layer1"
     transform="translate(-256.0507,-734.11691)"><g
       id="g7"
       transform="translate(-0.47229926,2.0065179)"><g
         id="g3"
         transform="matrix(0.25035798,0,0,0.25035798,-58.11507,136.70263)"><path
           style="fill:#ffcc00;stroke:#000000;stroke-width:4.479;stroke-dasharray:none;stroke-dashoffset:0;stroke-opacity:1"
           d="m 710.6593,1159.1886 c -7.9533,-2.7342 -28.6632,-21.6901 -33.2975,-30.4774 -3.9032,-7.4009 -3.4405,-15.0499 1.3906,-22.9863 2.2828,-3.75 38.7197,-41.0087 80.971,-82.7971 l 76.8206,-75.97891 -5.9534,-14.86811 c -21.4541,-53.57891 -2.5291,-112.20526 46.8086,-145.00487 20.6085,-13.70053 37.2232,-18.9393 63.0974,-19.89521 25.6971,-0.94937 39.7206,2.11137 61.5016,13.4232 74.7638,38.82817 89.4933,138.57716 29.0236,196.54955 -22.409,21.48352 -48.0807,32.85625 -77.8629,34.49365 -21.6826,1.1921 -36.7227,-1.2276 -52.9811,-8.524 l -11.7455,-5.27102 -12.4419,12.81382 c -14.6557,15.0938 -15.2504,18.416 -5.8081,32.4472 8.8307,13.1224 10.3773,22.7857 5.4351,33.9583 -2.0975,4.7419 -7.1369,11.1563 -11.1987,14.2544 -6.3225,4.8224 -9.1359,5.6328 -19.5531,5.6328 -10.5869,0 -13.3352,-0.8227 -21.1502,-6.3311 -10.2308,-7.2114 -11.3602,-7.4569 -15.457,-3.3602 -2.6626,2.6627 -2.576,3.8926 0.8349,11.8498 7.2925,17.0128 3.5002,30.8839 -10.8721,39.7664 -10.0368,6.2031 -21.3361,5.9516 -32.7349,-0.7286 l -8.9282,-5.2322 -13.5603,12.7921 c -15.5549,14.6737 -21.5646,17.1777 -32.3385,13.4738 z m 256.118,-229.55667 c 27.2123,-13.42095 32.7384,-52.46237 10.4237,-73.64138 -16.666,-15.81766 -47.0026,-15.81766 -63.6685,0 -14.3945,13.66183 -18.3815,37.95922 -8.9889,54.77954 12.5983,22.56116 38.6956,30.47073 62.2337,18.86184 z"
           id="path2" /><path
           style="fill:#000000;stroke:#000000;stroke-width:8.72532;stroke-dasharray:none;stroke-dashoffset:0;stroke-opacity:1"
           d="M 751.4389,1293.9139 C 661.273,1289.5607 622.036,1277.8098 589.7027,1245.4765 555.8892,1211.663 545.6827,1174.9738 542,1074 c -2.3228,-63.6878 -2.3179,-169.70254 0.01,-225.97403 3.9473,-95.39879 14.5998,-132.35471 47.7402,-165.6211 24.0255,-24.1169 50.2723,-35.70504 96.7751,-42.72697 34.2582,-5.173 115.9851,-7.4495 223.6794,-6.23061 99.713,1.12857 126.0969,2.49872 157.7922,8.19434 65.8626,11.83545 104.8564,44.81388 120.6288,102.01994 10.7198,38.8803 13.7461,87.75794 13.759,222.22155 0.015,158.79668 -4.1218,201.79028 -23.3853,243.02858 -24.2744,51.9658 -62.9774,73.5192 -148.0154,82.4287 -19.0553,1.9965 -247.8679,4.1029 -279.5455,2.5735 z m -16.5584,-133.3564 c 2.6786,-1.8967 8.693,-7.3777 13.3654,-12.18 l 8.4952,-8.7314 7.0892,4.1868 c 10.6581,6.2947 28.0161,5.8044 38.04,-1.0745 11.2027,-7.6878 14.8005,-14.2747 14.8156,-27.1244 0.01,-6.0299 -1.3139,-14.1386 -2.9354,-18.0195 -3.5217,-8.4286 -2.5293,-8.6818 7.3077,-1.8648 19.6386,13.6096 47.2187,7.4091 57.4911,-12.925 7.4488,-14.7446 5.2585,-30.4697 -6.367,-45.7116 -6.0733,-7.9625 -5.4851,-9.6042 8.2534,-23.0333 l 9.4844,-9.2708 7.7075,3.6827 c 11.7459,5.6123 26.3343,8.0408 48.3031,8.0408 22.1935,0 37.0036,-3.0995 54.8589,-11.481 45.9109,-21.5512 75.6923,-71.38044 72.31,-120.98657 -3.3467,-49.08379 -27.4821,-86.59476 -69.5566,-108.10398 -18.8033,-9.61257 -32.9703,-12.67524 -58.6318,-12.67524 -26.6069,0 -39.1898,2.92335 -60.802,14.12593 -55.9554,29.00421 -81.9265,98.36463 -58.5351,156.32862 l 4.7168,11.68831 -77.6962,77.92203 c -42.7329,42.8572 -78.6645,79.8369 -79.8481,82.1772 -3.2444,6.4154 -2.6353,22.4008 1.0647,27.9413 4.6819,7.0111 14.1965,16.9493 22.8223,23.8385 11.7524,9.3864 27.6708,10.739 38.2469,3.2499 z"
           id="path3" /></g><path
         style="font-size:72px;font-family:'Trebuchet MS';-inkscape-font-specification:'Trebuchet MS';text-align:center;text-anchor:middle;white-space:pre;stroke-width:4.479"
         d="m 241.81836,602.32965 h -2.21484 l -12.26954,-35.50781 -11.46093,35.50781 h -2.21485 l -16.24218,-52.20703 h 7.3125 l 10.33593,35.96485 11.32032,-35.96485 h 2.46093 l 11.17969,35.89453 10.51172,-35.89453 h 7.3125 z m 38.49609,-5.02734 q -4.00781,5.02734 -12.26953,5.02734 -4.42969,0 -7.69922,-3.19922 -3.23437,-3.23437 -3.23437,-8.01562 0,-5.73047 4.99219,-9.66797 5.02734,-3.97266 12.79687,-3.97266 2.10938,0 4.78125,0.91407 0,-9.14063 -8.15625,-9.14063 -6.25781,0 -9.63281,3.375 l -2.8125,-5.58984 q 1.89844,-1.54688 5.23828,-2.63672 3.375,-1.125 6.43359,-1.125 8.19141,0 11.88282,3.72656 3.72656,3.72656 3.72656,11.84766 v 13.5 q 0,4.95703 2.95312,6.60937 v 3.33985 q -4.07812,0 -6.11718,-1.16016 -2.00391,-1.16016 -2.88282,-3.83203 z m -0.63281,-14.16797 q -3.16406,-0.70312 -4.42969,-0.70312 -5.0625,0 -8.26172,2.60156 -3.19921,2.60156 -3.19921,6.15234 0,5.8711 6.92578,5.8711 5.0625,0 8.96484,-4.81641 z m 17.71875,7.83984 v -42.43359 h 6.67969 v 41.30859 q 0,3.02344 1.72265,4.78125 1.75782,1.72266 4.57032,1.72266 v 5.97656 q -12.97266,0 -12.97266,-11.35547 z m 21.23438,0 v -42.43359 h 6.67968 v 41.30859 q 0,3.02344 1.72266,4.78125 1.75781,1.72266 4.57031,1.72266 v 5.97656 q -12.97265,0 -12.97265,-11.35547 z m 52.41796,-7.52343 h -27.14062 q 0,6.60937 3.62109,10.16015 3.19922,3.09375 8.22657,3.09375 5.73046,0 9.5625,-3.33984 l 2.8125,4.81641 q -1.54688,1.54687 -4.7461,2.67187 -4.00781,1.47656 -8.92969,1.47656 -7.10156,0 -12.05859,-4.8164 -5.51953,-5.3086 -5.51953,-14.27344 0,-9.31641 5.66016,-14.94141 5.0625,-5.02734 11.98828,-5.02734 8.05078,0 12.62109,4.53516 4.42969,4.35937 4.42969,11.5664 0,2.21485 -0.52735,4.07813 z M 354.8457,568.89606 q -4.46484,0 -7.48828,2.88281 -2.88281,2.74219 -3.26953,6.82031 h 20.84766 q 0,-4.04296 -2.53125,-6.75 -2.77735,-2.95312 -7.5586,-2.95312 z m 26.15625,0.35156 h -4.35937 v -5.27344 h 4.35937 v -7.875 l 6.67969,-2.5664 v 10.4414 h 10.33594 v 5.27344 h -10.33594 v 18.70313 q 0,4.74609 1.58203,6.75 1.61719,2.0039 5.16797,2.0039 2.56641,0 5.30859,-1.30078 l 0.98438,5.8711 q -4.14844,1.05468 -9.10547,1.05468 -4.46484,0 -7.55859,-3.30468 -3.0586,-3.33985 -3.0586,-8.40235 z m 76.78125,32.37891 -14.51953,-23.69531 -6.85547,9.73828 v 13.95703 h -7.03125 v -51.50391 h 7.03125 v 28.01953 l 19.125,-28.01953 h 7.83985 l -15.39844,22.32422 17.57812,29.17969 z m 41.97657,-18.17578 h -27.14063 q 0,6.60937 3.62109,10.16015 3.19922,3.09375 8.22657,3.09375 5.73047,0 9.5625,-3.33984 l 2.8125,4.81641 q -1.54688,1.54687 -4.7461,2.67187 -4.00781,1.47656 -8.92968,1.47656 -7.10157,0 -12.0586,-4.8164 -5.51953,-5.3086 -5.51953,-14.27344 0,-9.31641 5.66016,-14.94141 5.0625,-5.02734 11.98828,-5.02734 8.05078,0 12.62109,4.53516 4.42969,4.35937 4.42969,11.5664 0,2.21485 -0.52734,4.07813 z m -16.20704,-14.55469 q -4.46484,0 -7.48828,2.88281 -2.88281,2.74219 -3.26953,6.82031 h 20.84766 q 0,-4.04296 -2.53125,-6.75 -2.77735,-2.95312 -7.5586,-2.95312 z m 38.14454,39.12891 q -1.30079,3.58593 -5.48438,5.97656 -4.14844,2.39062 -9.28125,2.39062 v -5.97656 q 4.18359,0 7.17188,-1.96875 2.98828,-1.93359 2.98828,-4.74609 0,-3.09375 -1.08985,-6.08203 -1.08984,-3.02344 -2.8125,-7.45313 l -10.19531,-26.19141 h 6.82031 l 11.07422,29.10938 9.94922,-29.10938 h 6.82031 z m 19.75781,3.90234 3.62109,-5.34375 q 5.83594,3.90234 10.75781,3.90234 4.53516,0 7.13672,-1.58203 2.63672,-1.54687 2.63672,-3.86719 0,-4.57031 -6.60937,-4.57031 -1.125,0 -4.07813,0.5625 -2.95312,0.5625 -4.60547,0.5625 -8.01562,0 -8.01562,-6.04687 0,-1.86328 1.86328,-3.375 1.89844,-1.51172 4.67578,-2.17969 -7.94531,-3.72656 -7.94531,-12.9375 0,-5.90625 4.11328,-9.84375 4.11328,-3.9375 10.16016,-3.9375 5.55468,0 8.68359,2.28516 l 3.33984,-4.00782 4.35938,4.11328 -4.00781,3.02344 q 2.5664,3.33985 2.5664,8.71875 0,5.69531 -3.55078,9.5625 -3.55078,3.86719 -9.31641,4.42969 l -5.51953,0.5625 q -0.98437,0.10547 -2.63672,0.77344 -1.65234,0.63281 -1.65234,1.6875 0,1.4414 3.44531,1.4414 1.51172,0 4.71094,-0.52734 3.19922,-0.5625 4.74609,-0.5625 5.55469,0 8.64844,2.67187 3.12891,2.63672 3.12891,7.34766 0,5.20313 -4.67578,8.40234 -4.64063,3.19922 -11.77735,3.19922 -3.65625,0 -7.69922,-1.30078 -4.04296,-1.30078 -6.5039,-3.16406 z m 14.16797,-43.27734 q -3.48047,0 -5.69532,2.46093 -2.17968,2.46094 -2.17968,5.97657 0,3.9375 2.10937,6.53906 2.14453,2.5664 5.76563,2.5664 3.55078,0 5.55468,-2.49609 2.00391,-2.53125 2.00391,-6.60937 0,-3.51563 -2.17969,-5.97657 -2.14453,-2.46093 -5.3789,-2.46093 z m 55.05468,14.80078 h -27.14062 q 0,6.60937 3.62109,10.16015 3.19922,3.09375 8.22657,3.09375 5.73046,0 9.5625,-3.33984 l 2.8125,4.81641 q -1.54688,1.54687 -4.7461,2.67187 -4.00781,1.47656 -8.92969,1.47656 -7.10156,0 -12.05859,-4.8164 -5.51953,-5.3086 -5.51953,-14.27344 0,-9.31641 5.66016,-14.94141 5.0625,-5.02734 11.98828,-5.02734 8.05078,0 12.62109,4.53516 4.42969,4.35937 4.42969,11.5664 0,2.21485 -0.52735,4.07813 z M 594.4707,568.89606 q -4.46484,0 -7.48828,2.88281 -2.88281,2.74219 -3.26953,6.82031 h 20.84766 q 0,-4.04296 -2.53125,-6.75 -2.77735,-2.95312 -7.5586,-2.95312 z m 46.9336,32.73047 v -21.90235 q 0,-6.01171 -1.82813,-8.40234 -1.79297,-2.42578 -6.04687,-2.42578 -2.28516,0 -4.78125,1.37109 -2.4961,1.3711 -3.83203,3.375 v 27.98438 h -6.67969 v -37.65235 h 4.57031 l 2.10938,4.85157 q 3.30468,-5.55469 10.79296,-5.55469 12.375,0 12.375,15.04687 v 23.3086 z"
         id="text6"
         transform="translate(65.105473,-181.62653)"
         aria-label="Wallet Keygen" /><path
         style="fill:none;fill-opacity:1;stroke:#000000;stroke-width:4;stroke-dasharray:none;stroke-dashoffset:0;stroke-opacity:1"
         d="M 260,440 H 720"
         id="path7" /><g
         id="g9"
         transform="matrix(0.25035798,0,0,0.25035798,122.35723,574.69611)"><path
           style="fill:#ffd700;fill-opacity:1;stroke:#000000;stroke-width:4.479;stroke-dasharray:none;stroke-dashoffset:0;stroke-opacity:1"
           d="m 710.6593,1159.1886 c -7.9533,-2.7342 -28.6632,-21.6901 -33.2975,-30.4774 -3.9032,-7.4009 -3.4405,-15.0499 1.3906,-22.9863 2.2828,-3.75 38.7197,-41.0087 80.971,-82.7971 l 76.8206,-75.97891 -5.9534,-14.86811 c -21.4541,-53.57891 -2.5291,-112.20526 46.8086,-145.00487 20.6085,-13.70053 37.2232,-18.9393 63.0974,-19.89521 25.6971,-0.94937 39.7206,2.11137 61.5016,13.4232 74.7638,38.82817 89.4933,138.57716 29.0236,196.54955 -22.409,21.48352 -48.0807,32.85625 -77.8629,34.49365 -21.6826,1.1921 -36.7227,-1.2276 -52.9811,-8.524 l -11.7455,-5.27102 -12.4419,12.81382 c -14.6557,15.0938 -15.2504,18.416 -5.8081,32.4472 8.8307,13.1224 10.3773,22.7857 5.4351,33.9583 -2.0975,4.7419 -7.1369,11.1563 -11.1987,14.2544 -6.3225,4.8224 -9.1359,5.6328 -19.5531,5.6328 -10.5869,0 -13.3352,-0.8227 -21.1502,-6.3311 -10.2308,-7.2114 -11.3602,-7.4569 -15.457,-3.3602 -2.6626,2.6627 -2.576,3.8926 0.8349,11.8498 7.2925,17.0128 3.5002,30.8839 -10.8721,39.7664 -10.0368,6.2031 -21.3361,5.9516 -32.7349,-0.7286 l -8.9282,-5.2322 -13.5603,12.7921 c -15.5549,14.6737 -21.5646,17.1777 -32.3385,13.4738 z m 256.118,-229.55667 c 27.2123,-13.42095 32.7384,-52.46237 10.4237,-73.64138 -16.666,-15.81766 -47.0026,-15.81766 -63.6685,0 -14.3945,13.66183 -18.3815,37.95922 -8.9889,54.77954 12.5983,22.56116 38.6956,30.47073 62.2337,18.86184 z"
           id="path8" /><path
           style="fill:#ffffff;fill-opacity:1;stroke:#000000;stroke-width:8.72532;stroke-dasharray:none;stroke-dashoffset:0;stroke-opacity:1"
           d="M 751.4389,1293.9139 C 661.273,1289.5607 622.036,1277.8098 589.7027,1245.4765 555.8892,1211.663 545.6827,1174.9738 542,1074 c -2.3228,-63.6878 -2.3179,-169.70254 0.01,-225.97403 3.9473,-95.39879 14.5998,-132.35471 47.7402,-165.6211 24.0255,-24.1169 50.2723,-35.70504 96.7751,-42.72697 34.2582,-5.173 115.9851,-7.4495 223.6794,-6.23061 99.713,1.12857 126.0969,2.49872 157.7922,8.19434 65.8626,11.83545 104.8564,44.81388 120.6288,102.01994 10.7198,38.8803 13.7461,87.75794 13.759,222.22155 0.015,158.79668 -4.1218,201.79028 -23.3853,243.02858 -24.2744,51.9658 -62.9774,73.5192 -148.0154,82.4287 -19.0553,1.9965 -247.8679,4.1029 -279.5455,2.5735 z m -16.5584,-133.3564 c 2.6786,-1.8967 8.693,-7.3777 13.3654,-12.18 l 8.4952,-8.7314 7.0892,4.1868 c 10.6581,6.2947 28.0161,5.8044 38.04,-1.0745 11.2027,-7.6878 14.8005,-14.2747 14.8156,-27.1244 0.01,-6.0299 -1.3139,-14.1386 -2.9354,-18.0195 -3.5217,-8.4286 -2.5293,-8.6818 7.3077,-1.8648 19.6386,13.6096 47.2187,7.4091 57.4911,-12.925 7.4488,-14.7446 5.2585,-30.4697 -6.367,-45.7116 -6.0733,-7.9625 -5.4851,-9.6042 8.2534,-23.0333 l 9.4844,-9.2708 7.7075,3.6827 c 11.7459,5.6123 26.3343,8.0408 48.3031,8.0408 22.1935,0 37.0036,-3.0995 54.8589,-11.481 45.9109,-21.5512 75.6923,-71.38044 72.31,-120.98657 -3.3467,-49.08379 -27.4821,-86.59476 -69.5566,-108.10398 -18.8033,-9.61257 -32.9703,-12.67524 -58.6318,-12.67524 -26.6069,0 -39.1898,2.92335 -60.802,14.12593 -55.9554,29.00421 -81.9265,98.36463 -58.5351,156.32862 l 4.7168,11.68831 -77.6962,77.92203 c -42.7329,42.8572 -78.6645,79.8369 -79.8481,82.1772 -3.2444,6.4154 -2.6353,22.4008 1.0647,27.9413 4.6819,7.0111 14.1965,16.9493 22.8223,23.8385 11.7524,9.3864 27.6708,10.739 38.2469,3.2499 z"
           id="path9" /></g></g></g></svg>
